<?xml version="1.0" standalone="no"?>
<!DOCTYPE svg PUBLIC "-//W3C//DTD SVG 20010904//EN"
 "http://www.w3.org/TR/2001/REC-SVG-20010904/DTD/svg10.dtd">
<svg version="1.0" xmlns="http://www.w3.org/2000/svg"
 width="881.000000pt" height="1280.000000pt" viewBox="0 0 881.000000 1280.000000"
 preserveAspectRatio="xMidYMid meet">
<g transform="translate(0.000000,1280.000000) scale(0.100000,-0.100000)"
fill="#000000" stroke="none">
<path d="M4385 12788 c-343 -39 -555 -83 -783 -163 -444 -155 -809 -388 -1133
-723 -499 -515 -791 -1189 -859 -1979 -7 -89 -16 -128 -41 -189 -28 -66 -38
-80 -76 -103 -312 -185 -539 -462 -641 -781 -48 -151 -63 -235 -69 -390 -18
-466 198 -910 574 -1181 l81 -59 38 -113 c257 -776 749 -1431 1404 -1869 74
-50 136 -94 138 -98 1 -4 -57 -27 -130 -50 -615 -200 -1171 -728 -1606 -1525
-288 -528 -524 -1222 -651 -1915 -59 -323 -90 -565 -116 -919 -20 -266 -20
-343 2 -370 29 -34 241 -168 348 -221 322 -157 552 -173 792 -55 126 62 248
178 344 325 37 58 74 114 82 124 13 18 16 18 77 -18 328 -192 915 -318 1670
-357 390 -20 1036 -2 1455 41 722 74 1356 215 1749 391 79 35 113 46 122 38 7
-6 41 -63 76 -127 184 -340 375 -481 651 -482 151 0 323 51 525 156 147 76
341 203 378 247 24 28 26 37 20 87 -3 30 -11 129 -16 220 -58 966 -213 1799
-485 2615 -261 782 -584 1379 -948 1752 -134 137 -250 225 -382 290 -49 24
-90 49 -90 56 0 7 46 54 102 105 530 481 911 1123 1083 1827 75 306 99 494
107 820 6 266 -3 440 -33 645 -76 522 -258 1017 -541 1468 -47 74 -63 110 -59
125 11 44 -109 357 -228 596 -486 968 -1337 1599 -2336 1731 -283 37 -315 40
-416 38 -54 0 -135 -5 -179 -10z m595 -227 c825 -126 1539 -605 1999 -1343 81
-128 173 -303 165 -311 -4 -3 -56 40 -118 96 -260 240 -497 405 -796 556 -617
311 -1294 423 -1970 325 -913 -133 -1741 -649 -2297 -1432 -41 -58 -69 -90
-75 -84 -17 17 77 336 156 525 174 420 473 825 806 1091 418 334 923 540 1465
595 147 16 509 5 665 -18z m812 -7727 c3 -3 -27 -74 -67 -157 -83 -174 -165
-383 -225 -577 -23 -74 -47 -139 -52 -145 -10 -11 -17 -4 -152 160 -115 138
-301 331 -427 441 -55 47 -99 92 -99 99 0 8 39 14 141 19 247 11 563 67 775
135 104 34 99 33 106 25z"/>
</g>
</svg>
